<svg width="116" height="74" viewBox="0 0 116 74" fill="none" xmlns="http://www.w3.org/2000/svg">
<path d="M106 69.1343H106.453V70.3967H106.708V69.1343H107.16V68.8988H106V69.1343ZM108.508 68.8971L108.061 70.0929L107.612 68.8988H107.336V70.3967H107.595V69.4963L107.932 70.3925H108.192L108.529 69.4963V70.3967H108.787V68.8988L108.508 68.8971Z" fill="black"/>
<path d="M87.6865 30.8148L86.6357 33.7333H98.2344L97.1795 30.8148H87.6865ZM90.5672 21.189C90.0434 17.8852 88.9959 14.0247 88.9959 14.0247C90.3716 22.5829 88.1047 29.3993 88.1047 29.3993H96.7565C92.7465 14.4117 95.8039 0.893762 95.9217 0.320389C95.2547 0.168933 93.8815 0.0174756 92.9813 0.00499288C92.8872 12.7798 95.1639 21.189 95.1639 21.189H94.2375C92.2235 12.8672 92.023 2.38586 92.0852 0C91.1025 0.00721044 90.1223 0.101043 89.1555 0.280444L93.3144 21.189H92.3954L88.2733 0.467685C87.2234 0.712143 86.2052 1.08081 85.2396 1.56616C89.6694 9.77396 91.4797 21.1906 91.4797 21.1906L90.5672 21.189ZM95.5289 16.9449C96.1762 9.13818 99.3752 2.15784 99.6265 1.56117C98.4439 0.943692 97.1501 0.608324 96.7049 0.490154C95.0379 8.31515 95.4749 15.7141 95.5248 16.9482L95.5289 16.9449Z" fill="black"/>
<path d="M79.904 18.144C79.9045 16.1394 80.3708 14.1632 81.2647 12.3765C82.1587 10.5898 83.4551 9.04311 85.0483 7.86244L84.2217 5.0014C81.9821 6.44832 80.1506 8.46217 78.9068 10.8456C77.6631 13.229 77.0496 15.9001 77.1267 18.5971C77.2038 21.2942 77.9687 23.9246 79.3465 26.2305C80.7242 28.5365 82.6676 30.4388 84.9861 31.751L85.9411 29.0364C84.0992 27.9014 82.5761 26.3028 81.5186 24.3948C80.4612 22.4869 79.9051 20.3341 79.904 18.144ZM100.641 5.0014L99.814 7.86244C101.481 9.09777 102.822 10.7329 103.717 12.6224C104.613 14.5119 105.035 16.5972 104.947 18.6927C104.858 20.7882 104.262 22.8291 103.211 24.6337C102.16 26.4383 100.686 27.9507 98.9212 29.0364L99.8754 31.751C102.194 30.4389 104.137 28.5366 105.515 26.2307C106.893 23.9248 107.658 21.2944 107.735 18.5974C107.812 15.9003 107.199 13.2292 105.955 10.8457C104.712 8.4623 102.88 6.44839 100.641 5.0014Z" fill="#00BE14"/>
<path d="M71.1614 55.0096H74.7565V53.2454H71.1655V51.6401H75.0699V49.8751H69.2374V58.4532H75.1656V56.689H71.1647L71.1614 55.0096ZM96.0085 58.6429C98.489 58.6429 100.091 56.9411 100.091 54.1616C100.091 51.3822 98.489 49.6795 96.0085 49.6795C93.5281 49.6795 91.9265 51.3813 91.9265 54.1616C91.9265 56.9419 93.5273 58.6429 96.0085 58.6429ZM96.0085 51.4429C97.2132 51.4429 98.1641 52.3242 98.1641 54.1616C98.1641 55.9991 97.2132 56.8804 96.0085 56.8804C94.8039 56.8804 93.853 55.9983 93.853 54.1616C93.853 52.325 94.8064 51.4429 96.0085 51.4429ZM101.237 58.4532H103.165V55.5614H104.538C106.202 55.5614 107.566 54.5811 107.566 52.7186C107.566 50.8562 106.205 49.8751 104.538 49.8751H101.237V58.4532ZM103.165 51.6401H104.443C105.298 51.6401 105.636 52.0937 105.636 52.722C105.636 53.3503 105.298 53.8038 104.443 53.8038H103.165V51.6401ZM83.4 49.8751H81.472V54.973C81.472 56.1247 80.8934 56.8363 79.8352 56.8363C78.7771 56.8363 78.1985 56.1247 78.1985 54.973V49.8751H76.2704V55.0837C76.2704 57.4729 77.8973 58.6005 79.8377 58.6005C81.778 58.6005 83.4049 57.4612 83.4049 55.0837L83.4 49.8751ZM79.994 67.4832H78.8646V72.497H82.3304V71.4651H79.994V67.4832ZM103.296 70.479H105.395V69.4513H103.296V68.5126H105.578V67.4832H102.172V72.4979H105.637V71.466H103.299L103.296 70.479ZM100.405 70.4582C100.405 71.1314 100.067 71.5467 99.4473 71.5467C98.8278 71.5467 98.489 71.1306 98.489 70.4582V67.4832H97.3621V70.5273C97.3621 71.9245 98.3122 72.5836 99.4473 72.5836C100.582 72.5836 101.532 71.9179 101.532 70.5273V67.4832H100.405V70.4582ZM94.267 70.6962H95.7884V71.0615C95.645 71.22 95.4704 71.346 95.276 71.4313C95.0815 71.5166 94.8716 71.5593 94.6599 71.5567C93.8071 71.5567 93.1655 71.0474 93.1655 69.9939C93.1655 68.9403 93.8636 68.431 94.533 68.431C95.1468 68.431 95.5412 68.7323 95.7033 69.2915L96.7819 68.9686C96.5282 68.0299 95.8097 67.3991 94.5478 67.3991C93.1942 67.3991 92.0378 68.3886 92.0378 69.9939C92.0378 71.5991 93.1835 72.5886 94.5617 72.5886C95.6329 72.5886 96.2958 72.1584 96.8384 71.4851V69.8033H94.2654L94.267 70.6962ZM112.208 49.8718H110.162L106.74 58.4499H108.921L109.536 56.8205H112.838L113.453 58.4499H115.634L112.208 49.8718ZM110.192 55.0587L111.182 52.4207L112.17 55.0554L110.192 55.0587ZM88.8487 67.4832L86.8478 72.497H88.1228L88.482 71.5442H90.4126L90.7718 72.497H92.0468L90.0459 67.4832H88.8487ZM88.8699 70.5123L89.4477 68.9728L90.0247 70.5123H88.8699ZM83.9876 70.479H86.0867V69.4471H83.9876V68.5126H86.27V67.4832H82.8583V72.497H86.324V71.4651H83.9876V70.479ZM89.271 58.4499H91.4396L89.5574 55.0063C90.4134 54.5161 91.0157 53.7447 91.0157 52.6171C91.0157 50.9378 89.6777 49.8709 87.9665 49.8709H84.6161V58.4532H86.545V55.3658H87.581L89.271 58.4499ZM86.5474 51.6368H87.9935C88.7889 51.6368 89.0901 52.0529 89.0901 52.6171C89.0901 53.1813 88.7889 53.5974 87.9935 53.5974H86.5474V51.6368ZM85.6137 44.6057C85.5307 44.6805 85.4339 44.7377 85.3289 44.7741C85.224 44.8106 85.113 44.8254 85.0024 44.8179C84.7569 44.7888 84.6014 44.6848 84.3534 44.3735L82.9237 42.5869L82.1528 43.2235L83.7077 45.1708C84.0351 45.5869 84.4156 45.8041 84.86 45.8457C84.9123 45.8507 84.9647 45.8532 85.0163 45.854C85.4467 45.854 85.8469 45.7034 86.2348 45.3846C86.6669 45.0251 86.9043 44.6091 86.9599 44.1106C87.0106 43.6587 86.8781 43.2385 86.545 42.8249L84.9901 40.8776L84.2192 41.515L85.6481 43.3025C85.8977 43.6138 85.9664 43.786 85.9435 44.0398C85.9281 44.1521 85.891 44.2602 85.8344 44.3579C85.7778 44.4556 85.7028 44.5409 85.6137 44.6091V44.6057ZM92.4315 44.991C95.1321 44.991 97.6264 46.2651 99.0913 48.1192L99.6028 47.4767C97.9898 45.5153 95.3473 44.1896 92.4315 44.1896C89.5156 44.1896 86.8723 45.5153 85.2593 47.4767L85.7708 48.1192C87.2357 46.2684 89.7276 44.9944 92.4331 44.9944L92.4315 44.991ZM82.197 41.7913C85.0015 39.3305 88.6359 37.9749 92.4315 37.9749C96.227 37.9749 99.8614 39.3305 102.665 41.7913C102.956 42.0476 103.235 42.3131 103.501 42.5877L104.03 41.9219C103.767 41.6556 103.494 41.3974 103.212 41.1472C100.257 38.5525 96.4284 37.1236 92.4331 37.1236C88.4379 37.1236 84.6087 38.5525 81.6536 41.1472C81.3688 41.3968 81.0961 41.6551 80.8353 41.9219L81.3639 42.5877C81.6285 42.3153 81.9062 42.0509 82.197 41.7946V41.7913ZM101.464 42.5086C101.504 42.4128 101.51 42.3058 101.481 42.2058C101.452 42.1059 101.39 42.0194 101.305 41.9611L101.153 41.8421C101.076 41.7726 100.978 41.7329 100.875 41.73C100.772 41.7272 100.672 41.7612 100.591 41.8262L97.038 44.1647L97.9669 44.6998L100.232 43.2093L99.8417 44.5483L99.498 44.2862L98.9047 44.7181L99.6413 45.2781L99.4702 45.8798L100.284 46.6362L101.464 42.5086ZM90.8848 38.976L88.3879 39.4911C88.2829 39.5094 88.1893 39.5692 88.1277 39.6576C88.0994 39.7031 88.0803 39.754 88.0716 39.8072C88.0629 39.8603 88.0647 39.9147 88.077 39.9672L88.5745 42.4637C88.6564 42.869 88.834 43.1611 89.1056 43.3317C89.3006 43.4471 89.5234 43.5048 89.7489 43.4981C89.8864 43.4969 90.0235 43.4819 90.1581 43.4532L91.7179 43.1311L91.5304 42.1899L90.0124 42.5036C89.7022 42.5677 89.6032 42.5328 89.5304 42.1783L89.4764 41.9103L91.2326 41.5483L91.0419 40.6221L89.2857 40.9841L89.1531 40.3183L91.0714 39.9222L90.8848 38.976ZM95.7393 40.3366L97.2353 40.7311L97.4718 39.8032L95.9332 39.3979C95.0903 39.1758 94.5126 39.4961 94.308 40.3017L93.6795 42.7674C93.6634 42.8188 93.6581 42.8731 93.664 42.9266C93.6699 42.9802 93.6868 43.032 93.7137 43.0784C93.7405 43.1249 93.7767 43.1651 93.8199 43.1964C93.8631 43.2277 93.9123 43.2494 93.9643 43.2601L94.5371 43.4107L94.9422 41.8163L96.673 42.2723L96.9071 41.3569L95.1754 40.9009L95.2426 40.6371C95.3301 40.2884 95.4324 40.2593 95.7393 40.34V40.3366Z" fill="black"/>
<path d="M105.084 63.6194L103.176 60.4571H101.958V65.4693H103.056V62.307L104.965 65.4693H106.182V60.4546H105.083L105.084 63.6194ZM113.291 63.4529H115.389V62.4235H113.291V61.4857H115.572V60.4546H112.165V65.4668H115.629V64.4357H113.291V63.4529ZM87.8199 61.484V60.4546H84.4131V65.4668H85.54V63.4546H87.6382V62.4235H85.54V61.4857L87.8199 61.484ZM109.325 61.3825C109.853 61.3825 110.205 61.6837 110.338 62.2488L111.478 62.0199C111.274 60.9464 110.465 60.3381 109.332 60.3381C107.946 60.3381 106.919 61.3367 106.919 62.9569C106.919 64.5772 107.932 65.5758 109.304 65.5758C110.437 65.5758 111.246 64.9034 111.478 63.7866L110.367 63.5653C110.254 64.102 109.909 64.5314 109.303 64.5314C108.592 64.5314 108.058 63.9656 108.058 62.9569C108.058 61.9483 108.621 61.3841 109.325 61.3841V61.3825ZM92.1744 64.4341H89.8364V63.4546H91.9347V62.4235H89.8364V61.4857H92.118V60.4546H88.7103V65.4668H92.1744V64.4341ZM76.3227 60.3381C74.8734 60.3381 73.9372 61.3367 73.9372 62.9569C73.9372 64.5772 74.8734 65.5758 76.3227 65.5758C77.772 65.5758 78.7083 64.5772 78.7083 62.9569C78.7083 61.3367 77.772 60.3397 76.3227 60.3397V60.3381ZM76.3227 64.5456C75.6189 64.5456 75.0633 64.0305 75.0633 62.9569C75.0633 61.8834 75.6189 61.3683 76.3227 61.3683C77.0265 61.3683 77.5822 61.8834 77.5822 62.9569C77.5822 64.0305 77.0265 64.5472 76.3227 64.5472V64.5456ZM83.616 60.4529H82.5178V63.6152L80.6101 60.4529H79.3916V65.4651H80.4898V62.3029L82.3983 65.4651H83.616V60.4529ZM101.211 64.4341H98.8727V63.4546H100.971V62.4235H98.8727V61.4857H101.154V60.4546H97.7524V65.4668H101.217L101.211 64.4341ZM71.406 61.3825C71.9338 61.3825 72.2857 61.6837 72.4199 62.2488L73.5591 62.0199C73.3554 60.9464 72.546 60.3381 71.4134 60.3381C70.027 60.3381 69 61.3367 69 62.9569C69 64.5772 70.0131 65.5758 71.3855 65.5758C72.5182 65.5758 73.3275 64.9034 73.5591 63.7866L72.4478 63.5653C72.3348 64.102 71.9903 64.5314 71.3839 64.5314C70.6727 64.5314 70.1384 63.9656 70.1384 62.9569C70.1384 61.9483 70.7047 61.3841 71.4076 61.3841L71.406 61.3825ZM96.8465 62.0565C96.8465 61.0754 96.0649 60.4529 95.0649 60.4529H93.1074V65.4651H94.2334V63.6618H94.839L95.8211 65.4668H97.0977L95.9995 63.4546C96.4962 63.1683 96.8522 62.7173 96.8522 62.0582L96.8465 62.0565ZM95.0788 62.6291H94.2334V61.4857H95.078C95.5428 61.4857 95.7188 61.7286 95.7188 62.0582C95.7188 62.3877 95.5428 62.6307 95.0805 62.6307L95.0788 62.6291Z" fill="black"/>
<path d="M1.92806 56.4252H5.51822V54.661H1.92806V53.0557H5.83166V51.2907H0V59.8688H5.92822V58.1045H1.92806V56.4252ZM26.7752 60.0585C29.2557 60.0585 30.8572 58.3567 30.8572 55.5772C30.8572 52.7977 29.2557 51.0951 26.7752 51.0951C24.2948 51.0951 22.6965 52.7969 22.6965 55.5772C22.6965 58.3575 24.2939 60.0585 26.7752 60.0585ZM26.7752 52.8585C27.979 52.8585 28.93 53.7398 28.93 55.5772C28.93 57.4147 27.979 58.2959 26.7752 58.2959C25.5714 58.2959 24.6188 57.4138 24.6188 55.5772C24.6188 53.7406 25.5706 52.8585 26.7752 52.8585ZM32.0029 59.8688H33.931V56.9769H35.305C36.9679 56.9769 38.333 55.9966 38.333 54.1342C38.333 52.2718 36.9712 51.2907 35.305 51.2907H32.0029V59.8688ZM33.931 53.0557H35.2084C36.0645 53.0557 36.4016 53.5092 36.4016 54.1375C36.4016 54.7658 36.0645 55.2194 35.2084 55.2194H33.931V53.0557ZM14.1659 51.2907H12.2378V56.3886C12.2378 57.5403 11.6592 58.2518 10.6011 58.2518C9.54293 58.2518 8.96435 57.5403 8.96435 56.3886V51.2907H7.0322V56.4993C7.0322 58.8885 8.6591 60.0161 10.5994 60.0161C12.5398 60.0161 14.1659 58.8768 14.1659 56.4993V51.2907ZM10.7582 61.891H9.6305V66.9015H13.0963V65.8696H10.7582V61.891ZM34.0627 64.8918H36.161V63.8607H34.0627V62.922H36.3443V61.891H32.935V66.9015H36.4008V65.8696H34.0627V64.8918ZM31.1715 64.871C31.1715 65.5442 30.8327 65.9595 30.2132 65.9595C29.5937 65.9595 29.2549 65.5434 29.2549 64.871V61.891H28.128V64.9351C28.128 66.3323 29.0789 66.9914 30.2132 66.9914C31.3474 66.9914 32.2983 66.3257 32.2983 64.9351V61.891H31.1715V64.871ZM25.0337 65.109H26.5559V65.4677C26.4125 65.6259 26.238 65.7516 26.0437 65.8368C25.8494 65.9219 25.6397 65.9646 25.4282 65.962C24.5755 65.962 23.9339 65.4527 23.9339 64.3992C23.9339 63.3456 24.6319 62.8363 25.3013 62.8363C25.9143 62.8363 26.3096 63.1376 26.4716 63.6968L27.5502 63.3739C27.2965 62.4352 26.5772 61.8044 25.3153 61.8044C23.9617 61.8044 22.8061 62.7939 22.8061 64.3992C22.8061 66.0044 23.9478 66.9939 25.3292 66.9939C26.4012 66.9939 27.0633 66.5645 27.6067 65.8904V64.2128H25.0321L25.0337 65.109ZM42.9723 51.2907H40.9264L37.5015 59.8688H39.6824L40.297 58.2394H43.5991L44.2137 59.8688H46.3947L42.9723 51.2907ZM40.9599 56.4743L41.9485 53.8363L42.9363 56.471L40.9599 56.4743ZM19.6145 61.891L17.6145 66.9015H18.8895L19.2487 65.9487H21.1784L21.5377 66.9015H22.8127L20.8143 61.891H19.6145ZM19.6358 64.9201L20.2136 63.3806L20.7913 64.9201H19.6358ZM14.7584 64.8918H16.8534V63.8607H14.7584V62.922H17.04V61.891H13.6266V66.9015H17.0923V65.8696H14.7584V64.8918ZM20.0409 59.8688H22.2055L20.3232 56.4252C21.1792 55.9351 21.7816 55.1628 21.7816 54.036C21.7816 52.3567 20.4444 51.2898 18.7332 51.2898H15.3852V59.8688H17.3133V56.7814H18.3502L20.0409 59.8688ZM17.3174 53.0557H18.7634C19.5589 53.0557 19.86 53.4718 19.86 54.036C19.86 54.6002 19.5589 55.0163 18.7634 55.0163H17.3133L17.3174 53.0557ZM16.3836 46.0246C16.3006 46.0994 16.2039 46.1567 16.0989 46.1931C15.994 46.2295 15.883 46.2444 15.7723 46.2368C15.5268 46.2077 15.3721 46.1037 15.1234 45.7924L13.6945 44.0057L12.9236 44.6424L14.4785 46.5897C14.8058 47.0058 15.1864 47.223 15.6316 47.2646C15.6839 47.2696 15.7355 47.2721 15.787 47.2729C16.2183 47.2729 16.6185 47.1223 17.0064 46.8035C17.4385 46.444 17.675 46.0279 17.7307 45.5295C17.7814 45.0776 17.6488 44.6573 17.3158 44.2437L15.7609 42.2965L14.9867 42.9347L16.4156 44.7223C16.6611 45.0335 16.7331 45.2049 16.7102 45.4596C16.6945 45.5713 16.6572 45.6787 16.6004 45.7757C16.5437 45.8727 16.4686 45.9573 16.3795 46.0246H16.3836ZM23.2014 46.4099C25.902 46.4099 28.3972 47.684 29.8621 49.5381L30.3736 48.8956C28.7606 46.9342 26.1181 45.6085 23.2014 45.6085C20.2848 45.6085 17.6423 46.9342 16.0293 48.8956L16.5416 49.5381C18.0024 47.684 20.4935 46.4099 23.1973 46.4099H23.2014ZM12.9719 43.2102C15.7756 40.7494 19.4099 39.3938 23.2055 39.3938C27.0011 39.3938 30.6354 40.7494 33.4351 43.2102C33.7264 43.4665 34.0055 43.732 34.2722 44.0066L34.8001 43.3408C34.5382 43.0745 34.2654 42.8163 33.9817 42.5661C31.0258 39.9713 27.1975 38.5425 23.2022 38.5425C19.207 38.5425 15.3787 39.9713 12.4228 42.5661C12.1391 42.8157 11.8663 43.074 11.6044 43.3408L12.1322 44.0066C12.3952 43.732 12.6724 43.4665 12.9637 43.2102H12.9719ZM32.2378 43.9275C32.278 43.8317 32.2841 43.7246 32.2551 43.6247C32.2262 43.5248 32.1639 43.4383 32.079 43.3799L31.9276 43.2609C31.8509 43.1915 31.7525 43.1518 31.6498 43.1489C31.5471 43.146 31.4467 43.1801 31.3662 43.2451L27.8129 45.5836L28.7409 46.1187L31.0062 44.6282L30.6158 45.9672L30.2721 45.7051L29.6788 46.137L30.4153 46.697L30.2434 47.2987L31.0577 48.0551L32.2378 43.9275ZM21.6506 40.3949L19.1546 40.91C19.1025 40.9189 19.0526 40.9382 19.0078 40.9668C18.963 40.9954 18.9242 41.0326 18.8936 41.0765C18.8652 41.122 18.8462 41.1729 18.8375 41.226C18.8287 41.2792 18.8306 41.3336 18.8428 41.386L19.3404 43.8826C19.4222 44.2879 19.6006 44.58 19.8723 44.7505C20.0672 44.8662 20.29 44.9239 20.5156 44.917C20.6514 44.9155 20.7868 44.9005 20.9198 44.872L22.4804 44.55L22.2922 43.6088L20.775 43.9225C20.464 43.9866 20.3658 43.9517 20.2921 43.5971L20.2389 43.3292L21.9943 42.9672L21.8086 42.0368L20.0532 42.3988L19.9198 41.7331L21.8388 41.3369L21.6506 40.3949ZM26.5052 41.7555L28.0011 42.15L28.2376 41.2221L26.6991 40.8168C25.8562 40.5946 25.2792 40.915 25.0738 41.7197L24.4453 44.183C24.4292 44.2344 24.4239 44.2886 24.4298 44.3422C24.4357 44.3958 24.4526 44.4475 24.4795 44.494C24.5064 44.5405 24.5426 44.5807 24.5858 44.612C24.629 44.6433 24.6781 44.665 24.7301 44.6757L25.303 44.8263L25.7081 43.2318L27.4397 43.6879L27.673 42.7725L25.9413 42.3164L26.0084 42.0526C26.096 41.7039 26.1991 41.6748 26.5052 41.7555Z" fill="black"/>
<path d="M37.5391 62.1281H37.9917V63.3864H38.2454V62.1281H38.6979V61.8918H37.5391V62.1281ZM40.0458 61.8909L39.5973 63.0868L39.1489 61.8909H38.8755V63.3889H39.1341V62.4909L39.4729 63.3864H39.7283L40.0638 62.4909V63.3872H40.3224V61.8893L40.0458 61.8909Z" fill="black"/>
<path d="M10.6706 19.5596C10.6712 17.5549 11.1374 15.5788 12.0313 13.7921C12.9253 12.0054 14.2217 10.4587 15.8148 9.27801L14.9883 6.41614C12.7487 7.86316 10.9173 9.87709 9.6735 12.2605C8.42974 14.644 7.81633 17.3152 7.89339 20.0123C7.97046 22.7094 8.73536 25.3398 10.1131 27.6458C11.4909 29.9518 13.4342 31.8542 15.7527 33.1666L16.7077 30.452C14.8658 29.3169 13.3427 27.7183 12.2852 25.8104C11.2278 23.9025 10.6717 21.7497 10.6706 19.5596ZM31.4071 6.41697L30.5798 9.27801C32.2467 10.5133 33.5875 12.1485 34.483 14.038C35.3785 15.9275 35.8008 18.0127 35.7125 20.1083C35.6241 22.2038 35.0278 24.2447 33.9766 26.0493C32.9253 27.8539 31.4517 29.3663 29.6869 30.452L30.642 33.1666C32.9605 31.8544 34.9039 29.9522 36.2817 27.6463C37.6596 25.3404 38.4246 22.71 38.5017 20.0129C38.5789 17.3159 37.9655 14.6447 36.7218 12.2613C35.4781 9.87786 33.6467 7.86395 31.4071 6.41697Z" fill="#FF6900"/>
<path d="M18.5507 30.8148H20.4869L22.7358 20.5549V0L15.9245 2.95591L21.5295 22.3507L18.5507 30.8148ZM27.844 30.8148L24.8676 22.3507L30.4709 2.95591L23.6613 0V20.5549L25.9102 30.8148H27.844ZM18.0531 32.2295L17.0269 35.148H29.3678L28.3432 32.2304L18.0531 32.2295ZM25.0092 30.8148L23.1998 22.5588L21.3871 30.8148H25.0092Z" fill="black"/>
<path d="M57.8166 1.41553H57.121V74H57.8166V1.41553Z" fill="black"/>
</svg>
