<?xml version="1.0" encoding="UTF-8"?>
<svg xmlns="http://www.w3.org/2000/svg" xmlns:xlink="http://www.w3.org/1999/xlink" viewBox="0 0 10 10" width="5px" height="5px">
<g id="surface56696943">
<path style=" stroke:none;fill-rule:nonzero;fill:rgb(100%,100%,100%);fill-opacity:1;" d="M 5.003906 0.832031 C 2.710938 0.832031 0.84375 2.699219 0.84375 4.992188 C 0.84375 5.726562 1.035156 6.441406 1.398438 7.074219 L 0.832031 9.167969 L 3.011719 8.652344 C 3.621094 8.984375 4.304688 9.15625 5.003906 9.15625 C 7.296875 9.15625 9.164062 7.292969 9.164062 4.996094 C 9.167969 3.886719 8.734375 2.839844 7.949219 2.054688 C 7.164062 1.265625 6.117188 0.832031 5.003906 0.832031 Z M 5.003906 1.667969 C 5.894531 1.667969 6.730469 2.015625 7.359375 2.640625 C 7.988281 3.273438 8.332031 4.109375 8.332031 4.996094 C 8.332031 6.832031 6.839844 8.324219 5.003906 8.324219 C 4.449219 8.324219 3.898438 8.183594 3.414062 7.921875 L 3.132812 7.765625 L 2.824219 7.839844 L 2.003906 8.035156 L 2.203125 7.289062 L 2.292969 6.957031 L 2.121094 6.65625 C 1.828125 6.152344 1.675781 5.578125 1.675781 4.992188 C 1.675781 3.160156 3.167969 1.667969 5.003906 1.667969 Z M 3.53125 3.074219 C 3.460938 3.074219 3.351562 3.097656 3.253906 3.203125 C 3.160156 3.308594 2.890625 3.558594 2.890625 4.070312 C 2.890625 4.582031 3.261719 5.074219 3.316406 5.144531 C 3.367188 5.214844 4.035156 6.296875 5.089844 6.714844 C 5.96875 7.0625 6.148438 6.992188 6.339844 6.976562 C 6.53125 6.957031 6.953125 6.722656 7.042969 6.480469 C 7.128906 6.238281 7.128906 6.027344 7.101562 5.988281 C 7.078125 5.941406 7.007812 5.917969 6.902344 5.863281 C 6.800781 5.8125 6.289062 5.5625 6.191406 5.527344 C 6.097656 5.492188 6.027344 5.476562 5.957031 5.578125 C 5.890625 5.683594 5.691406 5.917969 5.628906 5.988281 C 5.566406 6.054688 5.507812 6.066406 5.402344 6.011719 C 5.300781 5.960938 4.964844 5.851562 4.566406 5.496094 C 4.257812 5.222656 4.050781 4.882812 3.988281 4.777344 C 3.929688 4.671875 3.984375 4.617188 4.035156 4.566406 C 4.082031 4.519531 4.136719 4.441406 4.191406 4.382812 C 4.242188 4.320312 4.261719 4.277344 4.292969 4.207031 C 4.328125 4.140625 4.3125 4.078125 4.285156 4.027344 C 4.257812 3.976562 4.058594 3.460938 3.964844 3.253906 C 3.886719 3.082031 3.804688 3.078125 3.730469 3.074219 C 3.671875 3.074219 3.601562 3.074219 3.53125 3.074219 Z M 3.53125 3.074219 "/>
</g>
</svg>
